<svg version="1.2" xmlns="http://www.w3.org/2000/svg" viewBox="0 0 1024 1024" width="1024" height="1024"><style>.a{fill:#00af54}.b{fill:#f2efea}</style><path class="a" d="m509.2 100.5c-0.6 2.2-1.5 6.3-2.1 9-0.6 2.8-3.3 14.9-6.1 27-2.8 12.1-6.9 29.9-9.1 39.5-2.3 9.6-4.2 17.6-4.3 17.7 0 0.2-4.4 0.7-9.6 1.3-5.2 0.6-16.5 2.4-25 4.1-8.5 1.7-21.6 4.8-29 7-7.4 2.1-17.8 5.3-23 7.2-5.2 1.9-13.4 5.1-18.2 7.1-4.9 2-14.3 6.4-21 9.7-6.8 3.4-16.8 8.9-22.3 12.2-5.5 3.3-13.6 8.5-18 11.6-4.4 3-12.5 8.9-18 13-5.5 4.2-16.7 14.1-24.9 22.1-8.2 8-19.9 20.8-26.1 28.5-6.1 7.7-13.2 16.9-15.7 20.5-2.5 3.6-7.2 10.8-10.3 16-3.2 5.2-8.4 14.8-11.6 21.3-3.3 6.4-7.7 16.3-10 21.9-2.3 5.7-5.7 15.2-7.6 21.3-1.9 6.1-5.2 18.9-7.3 28.5-2.1 9.6-4.7 24.1-5.7 32.2l-1.8 14.7c-10.1 2.5-21.1 5.5-31 8.2-9.9 2.8-22.4 6.4-27.7 8-5.4 1.6-9.8 3.2-9.8 3.7 0 0.4 15.5 5.8 34.5 11.9l34.5 11.3c0.9 12.8 1.6 20.1 2.1 24.5 0.6 4.4 1.9 13.4 2.9 20 1.1 6.6 2.7 15.1 3.6 19 0.9 3.9 3 11.5 4.6 17 1.7 5.5 5.7 17.2 9 26 3.3 8.8 8.9 21.6 12.3 28.5 3.5 6.9 8.6 16.5 11.5 21.5 2.9 5 8 13 11.5 18 3.4 5 10 13.7 14.6 19.5 4.6 5.7 13.3 15.6 19.4 21.9 6.1 6.3 16.2 15.9 22.5 21.3 6.3 5.5 15.4 12.7 20.3 16.1 4.8 3.4 13.5 9.2 19.5 12.9 5.9 3.7 15.9 9.4 22.2 12.7 6.3 3.3 15.8 7.8 21 10.1 5.2 2.3 16.7 6.6 25.5 9.5 8.8 3 20.5 6.5 26 7.9 5.5 1.4 14.5 3.4 20 4.5 5.5 1.1 16.2 2.8 23.8 3.8 10.2 1.3 13.9 2.2 14.2 3.3 0.2 0.8 4.1 15.9 8.5 33.5 4.5 17.6 8.8 34.3 9.6 37 0.9 2.7 1.8 5.7 2 6.5 0.5 1.3 0.6 1.3 1.4 0 0.5-0.8 3.4-11.6 6.4-24 3-12.4 7.4-29.5 9.6-38 2.2-8.5 4.4-15.8 4.8-16.2 0.4-0.4 7.7-1.6 16.2-2.7 8.5-1.1 21.6-3.4 29-5 7.4-1.7 18-4.3 23.5-5.9 5.5-1.6 15.2-4.7 21.5-6.9 6.3-2.3 17.8-6.9 25.5-10.3 7.7-3.5 16-7.4 18.5-8.8 2.5-1.4 10.6-6.2 18-10.6 7.4-4.4 19.6-12.6 27-18.1 7.4-5.6 18.9-15.3 25.4-21.6 6.6-6.3 15.7-15.7 20.4-20.9 4.7-5.2 12.4-14.7 17.1-21 4.8-6.3 11.9-16.7 15.8-23 3.9-6.3 10.7-18.7 15-27.5 4.3-8.8 10-21.9 12.6-29 2.7-7.1 6.6-19.5 8.8-27.5 2.2-8 5.1-20.4 6.4-27.5 1.3-7.1 3.1-19.1 4-26.5 0.8-7.4 1.9-15.9 2.3-18.8l0.7-5.4c31-10 46.2-15.1 53.8-17.6 7.6-2.6 13.8-5.2 13.7-5.7 0-0.5-5.6-2.6-12.3-4.6-6.7-2-21.7-6.2-33.2-9.4-11.5-3.1-21.3-6.2-21.7-6.8-0.4-0.7-0.8-2.8-0.8-4.7 0-1.9-1.1-9.9-2.5-17.7-1.4-7.9-3.6-19.1-5-25-1.4-6-4.2-16-6.2-22.3-1.9-6.3-6-17.6-9-25-3-7.4-8.4-19.6-12.1-27-3.7-7.4-10.6-19.4-15.3-26.5-4.8-7.1-13.5-19.1-19.4-26.5-5.9-7.4-18-20.7-26.9-29.5-9.4-9.4-20.9-19.6-27.6-24.6-6.3-4.7-16.5-11.7-22.5-15.6-6-3.8-15.5-9.5-21-12.6-5.5-3.1-15.9-8.3-23-11.5-7.1-3.3-17.3-7.6-22.5-9.5-5.2-2-16.5-5.6-25-8-8.5-2.5-21.8-5.7-29.5-7.1-7.7-1.4-19-3.1-25-3.8-6-0.6-11.3-1.4-11.7-1.7-0.4-0.3-5.7-21.7-11.8-47.6-6.1-25.9-11.5-47.7-12-48.5-0.6-1.1-1.1-0.5-1.8 2.5z"/><path fill-rule="evenodd" class="b" d="m512.2 128c0.6 0 1.5 2.6 2 5.8 0.5 3.1 4.5 20.5 8.9 38.7 4.4 18.2 10.2 43.6 12.9 56.5 2.7 12.9 6.1 29.5 7.5 36.8 1.4 7.2 2.5 14 2.5 14.9 0 1.6-0.7 1.7-4.8 1.1-2.6-0.4-10.1-1-16.7-1.4-6.8-0.4-12.3-1.2-12.7-1.8-0.4-0.6-0.8-34.7-0.8-75.8 0-55.8 0.3-74.8 1.2-74.8zm-31.2 92l-0.6 3.2c-0.3 1.8-0.9 3.6-1.3 4-0.3 0.4-6.5 1.6-13.6 2.7-7.2 1.1-18.6 3.4-25.5 5.1-6.9 1.7-17.2 4.7-23 6.7-5.8 1.9-15.5 5.5-21.5 8-6.1 2.4-17.1 7.6-24.5 11.5-7.4 3.9-15.8 8.5-18.5 10.2-2.8 1.7-10.6 7-17.5 12-6.9 4.9-16.1 11.9-20.5 15.6-4.4 3.8-13.9 12.8-21 20.1-7.2 7.4-15.9 17-19.4 21.4-3.5 4.4-10.6 14.3-15.7 22-5.1 7.7-11.7 18.7-14.8 24.5-3 5.8-7.1 14.3-9.1 19-2 4.7-5.7 14.6-8.1 22-2.5 7.4-6 20-7.9 28-1.8 8-3.7 17.6-4.1 21.4-0.5 3.7-1.4 7.2-1.9 7.7-0.6 0.4-2.5 1.2-7.6 2.4l0.6-4.5c0.4-2.5 1.6-9.7 2.6-16 1.1-6.3 3.7-17.8 5.9-25.5 2.1-7.7 5.5-18.7 7.5-24.5 2-5.8 7.6-18.6 12.5-28.5 4.9-9.9 12.3-23.2 16.6-29.5 4.2-6.3 11.3-16.2 15.8-22 4.5-5.7 14.2-16.7 21.6-24.3 7.4-7.7 18.9-18.3 25.5-23.6 6.6-5.3 17.2-13.1 23.5-17.3 6.3-4.1 16.4-10.4 22.5-13.9 6-3.4 15.5-8.4 21-11 5.5-2.5 16.3-7 24-9.9 7.7-2.9 20.7-6.9 29-9 8.2-2.1 19.7-4.6 25.5-5.5 5.8-0.9 11.2-1.8 12-1.9 0.8-0.2 3.4-0.4 10-0.6zm62.5 0c1.9 0 8.3 0.7 14.2 1.6 6 0.8 15.5 2.7 21.3 4 5.8 1.4 15.2 3.9 21 5.6 5.8 1.7 15 4.8 20.5 7 5.5 2.2 17.2 7.5 26 11.8 8.8 4.3 21.4 11.4 28 15.7 6.6 4.4 14.4 9.8 17.2 12.1 2.9 2.3 5.9 5.4 6.7 7 0.7 1.5 3.5 4.3 11.1 9.9l2.8-8.6c2.1-6.2 3.1-8.2 3.8-7.1 0.4 0.8 1.3 4.4 1.9 8 0.7 3.6 1.5 7.1 1.8 7.8 0.6 1.1 1.9 1.1 7.4-0.2 4.4-1 7-1.2 7.3-0.6 0.3 0.6-0.1 1.3-0.9 1.7-0.8 0.5-3.5 2.7-10.6 9.3l3.2 2.7c1.8 1.5 7.1 6.6 11.8 11.3 4.7 4.7 12.2 13 16.6 18.5 4.5 5.5 12 15.9 16.6 23 4.7 7.1 11.7 19.3 15.6 27 3.8 7.7 9.4 20.7 12.5 29 3 8.2 6.7 18.8 8.1 23.5 1.4 4.7 3.7 13.9 5.1 20.5 1.3 6.6 2.8 15.3 4 26.5l-3.5-1c-1.9-0.6-3.6-1.2-3.6-1.3-0.1-0.1-1.3-6.5-2.8-14.2-1.4-7.7-3.9-18.7-5.5-24.5-1.7-5.8-5.6-17.5-8.8-26-3.1-8.5-9-22-12.9-30-4-8-10.3-19-14-24.5-3.7-5.5-9.7-14.1-13.4-19-3.7-4.9-9.6-12.4-13.3-16.5-3.6-4.1-6.6-8.1-6.7-8.8 0-0.6 0.6-1.3 1.2-1.5 0.7-0.2-1.6-1.3-5.2-2.5-3.6-1.2-7-2.2-7.5-2.2-0.6 0-1.4 2.1-1.8 4.7-0.5 2.7-1.2 6.8-1.5 9.3-0.7 3.9-0.9 4.3-1.8 2.5-0.6-1.1-2.2-5-3.5-8.8-1.3-3.7-2.7-6.7-3.2-6.7-0.4 0-0.7 0.3-0.7 0.7 0 0.5-2.2 2.3-5 4-2.7 1.8-5.3 3.1-5.8 2.8-0.4-0.3-0.1-2 0.7-3.7 0.8-1.8 2.2-4.4 4.9-8.3l-9.9-2.5c-5.5-1.4-9.9-2.7-9.9-3 0-0.3 2.3-1.1 5.2-1.8 2.9-0.6 7.4-1.5 10.1-2 2.6-0.4 4.7-0.8 4.7-1 0-0.1-0.9-2.1-2.1-4.5-1.5-3.1-4.4-6-11.2-11.1-5.1-3.7-14.2-9.9-20.2-13.7-6.1-3.8-17.3-10-25-13.8-7.7-3.9-18.5-8.8-24-10.9-5.5-2.2-14.5-5.4-20-7.2-5.5-1.7-15.4-4.4-22-6-6.6-1.5-17.4-3.5-24-4.5-6.6-1-12.3-2-12.6-2.4-0.4-0.3-0.9-2.1-1.2-3.9-0.6-3.1-0.5-3.2 2.8-3.2zm-72.3 37.1c2-0.1 2.8 0.4 2.8 1.6-0.1 1-1.1 6.7-4.5 23.7l-7.5 1.2c-4.1 0.6-11.3 2.2-16 3.4-4.7 1.2-13.2 3.9-19 6-5.8 2.2-15.7 6.2-22 9-6.3 2.8-16.7 8.2-23 12-6.3 3.7-14.4 8.9-18 11.6-3.6 2.6-10.3 8-15 11.9-4.7 4-11.7 10.6-15.5 14.6-3.9 4.1-9.6 10.3-12.6 13.9-3.1 3.6-9 11.2-13.1 17-4.2 5.8-10.2 15.2-13.6 21-3.3 5.8-8 15.2-10.5 21-2.5 5.8-5.6 13.2-6.8 16.5-1.2 3.3-3.7 11.2-8.7 29l-12.6 3.5c-7 1.9-12.9 3.3-13 3-0.2-0.3 0.5-4.6 1.5-9.5 1-4.9 2.9-12.8 4.3-17.5 1.3-4.7 4.5-14.4 7.1-21.5 2.6-7.1 7.2-18.2 10.4-24.5 3.2-6.3 9.2-16.9 13.3-23.5 4.2-6.6 11.6-16.9 16.5-23 4.8-6 13.5-15.9 19.3-21.9 5.8-6 15.4-14.9 21.5-19.9 6-4.9 16.2-12.4 22.5-16.6 6.3-4.1 17.8-10.8 25.5-14.7 7.7-3.9 20-9.4 27.2-12.2 7.3-2.9 18.1-6.5 24-8.2 6-1.6 15.7-3.9 21.8-4.9 6-1.1 12.2-2 13.7-2zm83.8 1.1c4.1 0.4 10.9 1.5 15 2.4 4.1 0.8 11.5 2.7 16.5 4.1 4.9 1.3 15.1 4.7 22.5 7.5 7.4 2.8 17.5 7 22.5 9.3 4.9 2.4 13.7 7.2 19.5 10.7 5.8 3.5 17 11.2 25 17.2 9.1 6.9 19.3 15.7 27.5 24 7.1 7.3 16.2 17 20.1 21.6 4 4.7 11 14.1 15.6 21 4.6 6.9 11.2 17.9 14.5 24.5 3.4 6.6 8.2 17.2 10.7 23.5 2.4 6.3 6 16.7 7.9 23 2 6.3 4.4 15.4 5.4 20.2 1 4.8 1.6 8.9 1.3 9.3-0.3 0.3-6.3-1.1-26.1-7l-1.1-4c-0.6-2.2-2.5-8.7-4.3-14.5-1.8-5.8-4.7-14.1-6.5-18.5-1.7-4.4-5.8-13.2-9.1-19.5-3.2-6.3-8.6-15.8-12-21-3.4-5.2-9.6-13.8-13.8-19-4.2-5.2-12.3-14.2-18.1-20-5.8-5.8-15-14.1-20.5-18.5-5.5-4.4-15.6-11.8-22.5-16.4-6.9-4.7-18.4-11.2-25.5-14.6-7.2-3.5-17.5-7.9-23-9.8-5.5-1.9-13.8-4.5-18.5-5.7-4.7-1.2-12.1-2.8-16.5-3.6-4.4-0.8-8.1-1.6-8.2-1.7-0.1-0.1-1.3-5.5-2.7-12-1.5-6.4-2.7-12.1-2.8-12.5-0.1-0.5 3.1-0.5 7.2 0zm36.5 56.3c3.8 0.2 9.7 1.4 13 2.5 3.3 1.1 9.1 4.2 12.9 6.8 3.8 2.6 8.5 6.7 10.3 9.2 1.9 2.5 4.5 6.7 5.8 9.5 1.2 2.7 2.8 8.3 3.4 12.2 0.8 5.1 0.8 9.3 0.1 13.8-0.6 3.6-2 8.9-3.3 11.7-1.3 2.9-6.2 11.4-10.9 18.8-4.7 7.4-12.3 19.2-16.9 26.2-4.6 7-10.1 15.4-15.9 24.8l-1.9-2.3c-1-1.2-10-15-20.1-30.7-10-15.7-19.5-31-21.1-34-1.5-3-3.6-8.6-4.5-12.5-1.5-6.1-1.6-8.1-0.6-15 0.7-4.7 2.5-10.6 4.2-14.3 1.7-3.4 5.1-8.5 7.7-11.3 2.7-2.8 6.8-6.4 9.3-7.9 2.5-1.6 6.5-3.6 9-4.5 2.5-0.9 6.3-2 8.5-2.5 2.2-0.5 7.1-0.7 11-0.5zm-68.5 5.5l-0.3 2.7c-0.2 2.7-0.4 2.8-12.2 2.8v42l6 0.5c5.5 0.5 6 0.7 6.6 5.5h-19.8c-14.3 0.1-22.4 0.6-29.1 1.8-5 0.9-12.7 2.8-17 4.2-4.2 1.4-11.5 4.2-16.2 6.2-4.7 2-11.2 5.2-14.5 7.1-3.3 1.9-8.9 5.5-12.5 8.2-3.6 2.6-12.4 10.8-19.5 18.2-8.3 8.5-14.2 15.5-16.3 19.3-1.8 3.3-5.5 10.5-8.2 16-2.8 5.7-6.2 14.9-7.9 21.5-1.9 7.1-3.5 16.4-4.2 24.5-0.8 9.6-0.9 15.9 0 24 0.6 6 2.2 15.6 3.6 21.3 1.4 5.6 3.9 13.7 5.6 17.9 1.7 4.3 5 11.6 11.8 24.8l-2.2 2.4c-1.2 1.3-8.5 7.1-16.2 12.9-7.7 5.7-14.2 10.6-14.5 10.8-0.3 0.2 1.5 3 4 6.1 2.4 3.2 10.3 11.5 17.5 18.6 12.3 12 12.9 12.8 11.3 14.5-1.6 1.6-2 1.5-7-2.9-2.9-2.6-7.2-6.4-9.4-8.5-2.3-2.2-7.7-7.9-12-12.9-4.3-5-10.9-13.7-14.6-19.5-3.8-5.8-8.8-14.3-11.2-19-2.5-4.7-5.4-11-6.6-14-1.2-3-3.7-11.1-5.5-18-1.9-6.9-3.8-15.9-4.4-20-0.6-4.1-1.3-13.8-1.7-21.5-0.4-8.2-0.2-18.5 0.5-25 0.6-6.1 2.6-17.3 4.5-25 1.9-7.7 4.7-17.4 6.1-21.5 1.5-4.1 5.3-12.7 8.5-19 3.1-6.3 6.7-13.3 8-15.5 1.2-2.2 5-8.1 8.4-13 3.7-5.5 11.3-14.3 19.6-22.5 8-8.1 17.5-16.4 23.5-20.6 5.5-3.9 12.7-8.6 16-10.6 3.3-2 12.5-6.2 20.5-9.4 8-3.1 19.2-7 25-8.6 5.8-1.5 13-3.3 16-3.9 3-0.6 8.6-1.5 12.5-1.9 3.8-0.4 16.1-0.8 47.5-1zm141.2 49c0.6 0 2.2 4.8 3.4 10.7 1.3 6 3.2 15.1 4.4 20.3 1.1 5.2 2.8 16.3 3.8 24.7q1.7 15.2 0.7 16.2c-0.7 0.7-4.3-3.4-20.9-25.4l1.3-11c0.7-6.1 1.9-14.1 2.6-18 0.8-3.9 1.9-9.4 2.5-12.3 0.6-2.8 1.6-5.2 2.2-5.2zm19.9 15.8c5 5.3 12 14 15.5 19.2 3.5 5.2 7.9 13.4 9.9 18.3 1.9 4.8 3.8 10.6 4.8 17.2l-7.4 6.7c-4.1 3.6-10.1 8.8-19.4 16.6l-1.2-20.7c-0.9-15-2-24.7-4.2-35.6-1.7-8.3-4-18.1-5.1-22-1.1-3.9-2-7.6-2-8.2-0.1-0.7 4 3.1 9.1 8.5zm-183.4 3.3c0.7-0.1 1.3 0.1 1.3 0.4 0 0.3-1.5 2.6-3.3 5.1-2.5 3.6-3.3 5.9-3.6 10.2-0.2 3.3 0.2 6.8 2.1 10.7l1.7-3c1-1.6 2.7-3.8 3.7-4.7 1-1 3.7-2.4 5.9-3.2 2.2-0.9 6.4-1.5 9.2-1.6 2.9 0 7.7 0.9 10.5 1.9 3 1.1 7.7 4.1 10.7 6.8 2.9 2.6 6.6 6.9 11.1 14.3l-3.3-0.8c-1.7-0.4-6.1-0.6-9.7-0.6-3.6 0.1-8.1 0.8-10 1.6-1.9 0.9-5.8 3.5-8.5 5.9-2.8 2.5-7 4.9-9.5 5.6-2.5 0.7-7.1 1.3-10.3 1.3-3.1 0-6.9-0.5-8.5-1.1-1.5-0.5-4.6-2.9-11.1-9.4l-0.7 4c-0.3 2.2-0.2 5.6 0.4 7.5 0.6 1.9 2.6 5 4.4 6.9 1.8 1.8 4.6 4 6.3 4.9 1.6 0.8 6.3 1.8 10.3 2.1 3.9 0.3 7.2 0.6 7.2 0.6 0 0-0.6 2-1.4 4.5-0.7 2.5-2 5.9-2.9 7.5-0.8 1.6-2.6 4-3.9 5.2-1.2 1.2-4 2.9-6.1 3.7-2 0.9-5.8 1.6-8.5 1.6-3.5 0-5.6-0.6-8.2-2.6-1.9-1.4-5.3-3.5-7.5-4.5-2.2-1-6.1-1.9-8.8-1.9-2.6 0-6.1 0.7-7.7 1.5-1.7 0.8-3.7 2.5-4.5 3.7-0.8 1.3-1.5 3.8-1.5 5.5 0 1.8 0.4 3.5 1 3.8 0.5 0.3 2-0.4 3.2-1.5 1.4-1.2 3.8-2 6-2 3.1 0 4.4 0.6 6.8 3.5 2 2.4 3 4.6 3 6.7-0.1 1.8-1.1 5-2.3 7.2-1.2 2.1-4 4.9-6.2 6.1-2.2 1.3-6.5 2.6-9.5 3-3.1 0.4-7.3 0.2-9.8-0.4-2.3-0.6-6.1-2.6-8.4-4.4-2.3-1.8-5.5-5.6-7.1-8.7-2.6-4.9-2.8-6.3-2.5-12.5 0.2-4 1.2-8.8 2.4-11.2 1-2.3 1.4-4.3 0.9-4.3-0.6 0-2.8 1.6-4.9 3.7-2.2 2.1-5.1 6.3-6.5 9.3-2.2 4.6-2.6 6.9-2.6 14 0.1 6.3 0.6 9.7 2.1 13 1.1 2.5 4 6.7 6.5 9.3 2.4 2.7 6.9 6 9.9 7.5 4.6 2.2 6.9 2.6 23 2.7l-0.6 3c-0.3 1.6-1.8 5.2-3.4 8-1.8 3.4-4.3 6-7.5 8-4.3 2.7-5.7 3-12.4 3-5.8 0-8.5-0.5-11.6-2.2-2.2-1.2-5.5-3.6-7.4-5.5-1.9-1.8-4.3-5.3-5.4-7.8-1.1-2.5-2.3-7.4-3.3-17.5l-2 4c-1.4 3-1.9 6.2-1.9 13.1 0 8.7 0.1 9.3 3.7 15 2 3.2 3.4 6 3.2 6.1-0.2 0.2-2.2-0.6-4.4-1.7-2.2-1.1-5.9-3.9-8.1-6.3-2.3-2.3-5.2-6-6.5-8.2-1.3-2.2-2.9-6.7-3.7-10-0.9-3.9-1.2-8.3-0.7-12.5 0.4-4.3 1.5-8.1 3.3-11.3 1.5-2.6 4-5.7 5.6-7 2.5-1.8 2.8-2.6 2-4.5-0.5-1.2-0.9-5.2-0.9-9 0-5.1 0.6-7.9 2.4-11.7 1.3-2.8 3.9-6.2 5.8-7.6 1.8-1.5 4.5-3.3 6-4 2.5-1.3 2.7-2 3-8.4 0.3-4.9 1.1-8.5 2.8-12 1.4-2.7 4.5-6.9 7-9.3 2.5-2.4 7-5.5 10-6.9 3.1-1.4 8.3-2.9 11.8-3.2 6.2-0.6 6.5-0.7 9.8-5.4 1.9-2.6 5.5-5.9 8.1-7.4 2.7-1.5 6.7-2.9 13.2-3.8l-1.1 4c-0.6 2.3-0.8 6.8-0.4 10.7 0.3 3.8 1 6.8 1.6 6.8 0.5 0 1.3-1.9 1.6-4.3 0.4-2.3 1.6-6.2 2.6-8.7 1.1-2.5 3.4-6.2 5.1-8.4 1.8-2.1 4.8-4.8 6.7-5.9 1.9-1.2 6-2.9 9-3.9 3-0.9 6.1-1.7 6.7-1.7zm154.2 40.9c0.3-0.1 1.8 1.7 3.3 4 1.6 2.2 6.5 8.4 19.1 23.5l-0.7 15c-0.3 8.3-1.5 21.5-2.6 29.5-1.1 8-2.9 20.1-4 27-1.1 6.9-2.2 12.7-2.5 13-0.3 0.3-0.7 0.3-0.9 0-0.2-0.3-5-7.3-10.8-15.5-5.7-8.3-11.2-16.4-12-18-1.5-2.8-1.3-4.7 2.7-29 2.4-14.3 5-31.3 6-37.8 0.9-6.4 2-11.7 2.4-11.7zm-111.9 7.5c3 0.3 7.7 1.5 10.5 2.9 2.7 1.3 6.5 4 8.2 6 1.8 2 4.3 5.5 5.4 7.8 1.2 2.4 3.2 10.2 4.5 17.3 1.2 7.1 3 17.3 5.8 32l-5.3 14 3.9 8c2.1 4.4 5.5 12.5 7.5 18 2 5.5 3.9 11.1 4.2 12.5 0.4 1.8-0.1 3.2-1.8 4.9-2 2-3 2.3-5.9 1.7-1.9-0.4-6.9-1-11-1.4-6.5-0.6-7.6-1-8.9-3.2-1.2-2.2-1.2-2.9 0.3-6 0.9-1.9 1.6-3.6 1.6-3.8 0-0.1-1 0.4-2.3 1.2-1.2 0.8-3 3-4 5-1 2.1-1.5 4.8-1.2 6.6 0.3 1.6 1.5 3.9 2.7 5 1.3 1.1 3.8 2.2 5.5 2.5 1.9 0.3 4 1.5 4.8 2.7 0.8 1.3 1.5 3.5 1.5 5 0 1.6-0.7 3-1.5 3.3-0.8 0.3-4.8 0.5-8.8 0.5-4.5 0-7.7-0.4-8.4-1.2-0.7-0.7-1.4-1.1-1.6-0.8-0.1 0.3-1.5 2.3-3 4.5-1.5 2.2-2.7 4.8-2.7 5.7 0 1 0.5 2 1 2.3 0.5 0.3 2.9-0.7 5.2-2.3 3-2 5.4-2.7 8.9-2.7 3.3 0 5.3 0.6 6.8 2 1.2 1.1 2.2 2.5 2.1 3 0 0.5-1.2 1.7-2.7 2.6-1.6 0.9-4.3 2.8-6.1 4.3-1.7 1.4-3.2 3.1-3.2 3.6 0 0.2-2.2 1.8-4.7 3.5-3.2 2.3-7 4.7-7 4.5-0.2-0.3-1.2 0.4-2.4 1.5-1.9 1.8-2.8 1.9-9.7 1.2-4.2-0.5-10.4-1.8-13.7-2.9-3.3-1.1-9.1-3.7-13-5.7-3.8-2-9.7-6.1-13-9.2-3.3-3.1-7.2-7.8-8.7-10.5-1.4-2.7-3.1-6.8-3.7-9.2-0.6-2.3-1.4-4.2-1.9-4.2-0.4 0-1 1.4-1.5 3.2-0.4 1.8-0.7 4.5-0.7 6 0 1.6-0.2 2.8-0.5 2.8-0.3 0-2.9-1.5-5.8-3.4-2.8-1.8-8.7-5.2-13-7.5-4.2-2.2-7.7-4.2-7.7-4.4 0-0.1 2.3-2 5.1-4.2 3.5-2.8 6-5.8 8-10 2.6-5.3 2.9-7.1 2.9-15 0-7.3 0.4-9.6 2-12.3 1.1-1.7 3-3.9 4.2-4.7 1.3-0.8 6.6-3 11.8-4.8 5.2-1.8 12.1-5 15.2-7 3.2-2 7.5-5.8 9.6-8.5 2.1-2.6 4.9-7.4 6.2-10.7 1.9-5 2.4-8.5 2.9-21 0.5-11.1 1.1-15.8 2.3-18 0.9-1.6 3.1-4.4 5-6.1 1.8-1.8 4.4-3.7 5.8-4.5 1.4-0.7 3.8-1.6 5.5-2 1.6-0.5 5.5-0.6 8.5-0.4zm173.9 14.9c0.5 1.1 1.4 6.8 2 12.6 0.7 5.8 1.1 15.2 0.6 31.5l-3.7 2c-2.1 1.1-3.8 2.2-3.8 2.5 0 0.3 1.5 1.3 3.5 2.2 1.9 1 3.5 2.4 3.5 3 0 0.7-1.9 12.5-4.1 26.3-2.3 13.7-4.4 25.2-4.6 25.5-0.3 0.3-8.9 2.6-19.1 5.2-10.3 2.6-18.8 4.6-18.9 4.5-0.2-0.1 0.8-5 2.2-11 1.4-5.9 4-19.6 5.9-30.5 1.9-10.8 3.9-24.9 4.6-31.2 0.6-6.3 1.3-13.3 1.6-15.5 0.5-3.6 1.4-4.7 8.7-10.7 4.5-3.7 11-9.4 14.5-12.7 5.9-5.5 6.4-5.7 7.1-3.7zm-100.7 13.6c2.7 0 4.5 0.7 6.3 2.5 1.8 1.8 2.5 3.6 2.5 6.5 0 3.2-0.7 4.6-3.3 7.2-2.8 2.7-3.7 3.1-6.7 2.5-2.1-0.4-4.6-1.9-6.3-3.7-1.5-1.6-2.7-3.9-2.7-5 0-1.1 0.7-3.3 1.6-5 1-1.6 2.4-3.4 3.3-3.9 0.9-0.6 3.3-1.1 5.3-1.1zm-442.2 49.6c16.8 0.2 43.9 0.4 90 0.4v9.2c0 5.1 0.7 14.3 1.5 20.3 0.8 6 1.3 11.1 1.2 11.3-0.1 0.2-4.3-0.9-9.2-2.4-5-1.4-13.7-4-19.5-5.6-5.8-1.6-19.7-5.8-31-9.3-11.3-3.6-28.8-9.1-39-12.4-10.2-3.3-20.9-6.8-23.8-7.8-2.9-1-5.2-2.1-5.2-2.6 0-0.4 1-0.9 2.2-1.1 1.3-0.3 16-0.3 32.8 0zm584.2-0.6h54.2c29.7 0 57.8 0.3 62.4 0.8 4.5 0.4 8.2 0.9 8.2 1.2 0 0.3-6 2.4-13.3 4.8-7.2 2.4-21.1 6.8-30.7 9.8-9.6 3-24.5 7.7-33 10.4-8.5 2.7-18 5.6-21 6.5-3 0.9-11.4 3.4-31.5 9.5l0.8-2.7c0.5-1.6 1.2-5.9 1.7-9.8 0.4-3.9 1.1-12.3 1.5-18.8zm-121 2.5l1.9 2.5c1 1.4 6.6 9.1 12.3 17 5.7 8 10.9 15.4 11.6 16.5 1.1 1.7 0.4 5.7-4.5 25.5-3.1 13-6 24.7-6.4 26-0.4 1.4-1.1 2.5-1.6 2.5-0.5 0-3.4-4.2-6.6-9.5-3.2-5.2-7.9-14.2-15.3-30.5l2.5-14.2c1.3-7.8 2.7-14.3 3.2-14.3 0.4 0 2.1 0.9 3.7 2 1.7 1.2 3.4 1.9 4 1.8 0.5-0.1-0.8-3.2-7.1-13.3zm-430.7 28.5c0.8 0 2.5 0.4 3.7 0.9 2 0.8 2.4 1.9 3 8.3 0.4 4 1.9 13.4 3.3 20.8 1.5 7.5 4.2 18.9 6.1 25.5 1.9 6.7 5.3 17 7.5 23 2.3 6.1 6.2 15.8 8.8 21.5 2.6 5.8 7.5 15.5 11 21.5 3.5 6.1 9.6 16 13.6 22 4.1 6.1 11.3 16 16.2 22 4.8 6.1 14.8 17.1 22.3 24.6 7.9 7.9 19 17.6 27 23.6 7.4 5.6 18.2 13.2 24 16.8 5.8 3.7 18.6 10.7 28.5 15.6 11.1 5.5 23.7 10.8 33 13.9 8.2 2.7 21.3 6.5 29 8.5 7.7 1.9 19.2 4.2 25.5 5.1 6.3 0.9 11.5 1.7 11.6 1.8 0.1 0.1 0.4 1.8 1.4 7.6l-6.3-0.6c-3.4-0.3-12.1-1.6-19.2-2.9-7.2-1.3-19.4-4.2-27.3-6.4-7.8-2.2-18.8-5.8-24.5-7.9-5.6-2.1-15.4-6.3-21.7-9.2-6.3-3-15.1-7.4-19.5-9.8-4.4-2.4-13.9-8.2-21-13-7.2-4.7-17.5-12.2-23-16.6-5.5-4.3-16.5-14.5-24.5-22.5-8-8.1-18.5-19.8-23.4-26.1-4.9-6.3-12.5-16.8-16.9-23.5-4.3-6.6-10.4-16.7-13.5-22.5-3.1-5.7-8.1-16.1-11-23-3-6.8-8.3-21-11.8-31.5-3.4-10.4-7.2-23.7-8.3-29.5-1.2-5.7-2.8-15.2-3.6-21-0.8-5.7-1.5-11.9-1.5-13.7q0-3.3 1.5-3.3zm608.3 0.1c1 0 1.2 1.9 0.7 8.7-0.2 4.8-1.8 16-3.4 24.7-1.7 8.8-4.6 21.3-6.6 27.8-1.9 6.5-5.4 16.8-7.6 23-2.3 6.2-7.4 18-11.3 26.2-4 8.3-10.3 20-14 26-3.8 6.1-9.9 15.3-13.6 20.5-3.7 5.3-10.5 14-15.1 19.5-4.6 5.5-12.4 14.1-17.4 19-5 4.9-14.4 13.4-21 18.9-6.6 5.5-18.1 14-25.5 18.9-7.4 4.9-21.6 12.9-31.5 17.7-9.9 4.9-23.2 10.9-29.5 13.3-6.3 2.5-17.8 6.3-25.5 8.6-7.7 2.3-19.6 5.3-26.5 6.6-6.9 1.4-16.3 2.8-29.2 4l0.7-3c0.4-1.6 1.2-3.5 1.9-4.1 0.6-0.6 4.9-1.7 9.6-2.3 4.7-0.6 13.7-2.2 20-3.7 6.3-1.4 18.5-4.8 27-7.6 8.5-2.7 20-6.8 25.5-9 5.5-2.1 16.1-7 23.5-10.8 7.4-3.7 17.5-9.4 22.5-12.5 4.9-3.1 13.5-8.8 19-12.8 5.5-3.9 15.2-11.7 21.5-17.2 6.3-5.6 14.4-13.3 17.9-17.1 3.6-3.7 10.3-11.6 14.8-17.4 4.6-5.7 11.8-15.6 16.1-22 4.2-6.3 9.9-15.5 12.7-20.5 2.8-4.9 7.6-14.3 10.7-21 3.1-6.6 7.2-16 9.1-21 2-4.9 5.1-14.1 7-20.5 1.9-6.3 4.7-17.3 6.2-24.5 1.5-7.1 3.3-17.7 4-23.4 1.1-9.4 1.5-10.7 3.6-11.8 1.3-0.7 3-1.2 3.7-1.2zm-573.1 10.1l10.9 3.3c6 1.8 12 3.8 13.4 4.3 2.1 0.8 2.6 1.9 3.2 6.4 0.4 2.9 2.3 11 4.2 17.8 1.9 6.9 5.5 17.5 8.1 23.5 2.6 6.1 6.5 14.7 8.7 19 2.2 4.4 6.8 12.5 10.2 17.9 3.3 5.4 10.8 15.7 16.6 22.9 5.8 7.2 11.3 14.1 12.2 15.4 1 1.3 1.7 2.5 1.5 2.7-0.1 0.1-4.1 3.5-9 7.5-7.4 6.1-8.9 7-10.4 5.9-0.9-0.7-5.3-5.8-9.8-11.3-4.5-5.5-10.5-13.1-13.2-17-2.8-3.8-7.7-11.2-10.8-16.5-3.2-5.2-7.8-13.5-10.3-18.5-2.4-4.9-6.4-13.7-8.8-19.5-2.3-5.7-5.8-15.6-7.7-22-2-6.3-4.7-17.2-6.1-24.2-1.4-7-2.7-13.8-2.7-15.2zm536.5 0.9c1.3 0 1.6 0.5 1.3 2.2-0.3 1.2-1.2 6.3-2.1 11.3-0.9 4.9-2.4 12.3-3.5 16.5-1 4.1-3.9 13.3-6.3 20.5-2.4 7.1-6.6 18.1-9.3 24.5-2.7 6.3-8.1 16.9-12.1 23.5-3.9 6.6-9.7 15.6-12.9 20.1-3.2 4.5-10 13-15.1 18.8-5.1 5.8-9.5 10.6-9.8 10.6-0.3 0-4.2-3.3-8.7-7.2-4.6-3.9-8.9-7.6-9.6-8.2-1-0.9 0.9-3.5 8.8-12.1 5.6-6.1 12.9-15 16.3-19.8 3.4-4.9 8.6-13 11.5-18 2.9-5.1 7.2-13.7 9.6-19.2 2.4-5.5 6.1-15 8.1-21 2.1-6.1 4.9-16.4 9-34.9l11.5-3.7c6.3-2.1 12.3-3.8 13.3-3.9zm-374.7 9c0.2 0 5.3 1.4 11.2 3.1 5.9 1.7 13.9 4.3 17.7 5.9 3.9 1.5 10.8 4.5 15.5 6.7 4.7 2.2 13 6.6 18.5 9.9 5.5 3.3 16.1 10.4 23.5 15.8 7.4 5.4 18.8 14.3 25.3 19.7 6.4 5.4 11.7 10.1 11.7 10.4 0 0.2-1.4 2.6-3.2 5.2-1.8 2.6-4.7 8.4-6.6 12.8-1.9 4.4-4.1 11.6-4.9 16-0.9 4.4-1.8 8.7-2.2 9.7-0.4 1.3-2.2-0.6-7.1-8-3.5-5.4-11.1-14.6-17-20.6-5.7-6-13.9-13.7-18-17.1-4.1-3.4-11.8-9.1-17-12.6-5.2-3.5-14.9-9.1-21.5-12.4-6.6-3.4-17.4-8.1-24-10.4-6.6-2.4-12.5-4.6-13.2-4.8-0.9-0.2-0.5-2 1.6-6.1 1.5-3.2 4.3-9.7 6.1-14.5 1.8-4.8 3.4-8.7 3.6-8.7zm300.2 8.1c0.7-0.1 1.4 0.3 1.7 0.9 0.3 0.5-0.9 3.7-2.7 7.1-1.8 3.4-5.5 8.5-8.3 11.3-2.7 2.8-7.2 6.7-10 8.6-2.7 1.8-7.9 4.4-11.5 5.6-3.6 1.3-7.7 2.3-9.2 2.3-2.2 0-2.7-0.3-2.2-1.7 0.3-1 1.9-7.4 3.6-14.2 1.7-6.9 3.6-13.1 4.2-13.7 0.6-0.7 6.3-2.1 12.6-3.2 6.3-1.2 13.5-2.2 16-2.4 2.5-0.2 5.1-0.5 5.8-0.6zm-97.8 23.9c1.4 0 3.6 0.7 5 1.7 1.3 1 3 3.2 3.7 5 1 2.4 1.1 4.2 0.3 6.8q-1 3.5-4 5c-1.6 0.8-3.9 1.5-5 1.5-1.1 0-3.2-0.6-4.6-1.3-1.4-0.7-3.2-2.5-4-4-0.8-1.5-1.4-3.6-1.4-4.7 0-1.1 0.5-3.1 1.1-4.3 0.5-1.2 2.2-3 3.7-4 1.5-0.9 3.8-1.7 5.2-1.7zm41.5 20.8l3.5 0.7c1.9 0.3 3.7 0.8 4 1.1 0.3 0.2-0.7 5.3-2.3 11.2-1.5 5.8-3.7 13.7-4.7 17.4-1.1 3.7-2.4 6.8-3 6.8-0.5 0-2.3-0.7-4-1.5-1.6-0.9-3-1.9-3-2.3 0-0.4 2.1-8.1 4.7-17.1zm39.2 22.2c1.8 0 4.1 0.3 5 0.7 0.9 0.4 2.2 2 3 3.5 0.7 1.5 1.4 3.6 1.4 4.5 0 1-0.9 3-2 4.5-1.7 2.3-2.8 2.8-6.6 2.8-3.7 0-4.8-0.5-6.6-2.8-1.5-2.1-1.9-3.6-1.4-6.2 0.3-2 1.3-4.3 2.2-5.3 0.9-1 3.1-1.7 5-1.7zm-276.6 4.8l4.7 0.7c2.6 0.3 8.1 1.5 12.2 2.6 4.2 1.1 10.5 3.2 14 4.6 3.6 1.4 10.1 4.3 14.5 6.5 4.4 2.2 11.6 6.3 16 9.2 4.4 2.8 11.4 8.3 15.4 12.1 4.1 3.8 9.2 9.7 11.5 13 2.2 3.3 4.8 8.1 5.8 10.7 1.6 4.1 1.8 8 1.8 26.8 0 16.9-0.3 22-1.2 22-0.7 0-4.7-4.1-8.9-9.2-4.2-5.1-10.9-12.5-15-16.3-4.1-3.9-10.1-9.1-13.4-11.7-3.3-2.5-9.8-7-14.5-9.9-4.6-2.9-12.7-7.2-18-9.5-5.2-2.3-12.6-5.2-16.5-6.4-3.8-1.2-12-3-18.2-4.1-6.2-1.1-14.9-1.9-19.3-1.9-4.4 0-8.2-0.4-8.4-0.8-0.3-0.4 8-9.2 18.5-19.5zm196.9 0.1c3.2 0 5.2 1.6 42.5 37.8l-3.5 0.5c-1.9 0.3-7.8 0.8-13 1.1-5.2 0.3-13.3 1.5-18 2.6-4.7 1.1-12.1 3.2-16.5 4.6-4.4 1.3-12.9 4.9-19 7.8-6 3-14.4 7.8-18.7 10.7-4.2 3-11.6 8.8-16.4 12.9-4.8 4.1-11.8 11.3-15.5 16-3.8 4.7-6.6 8.6-6.3 8.7 0.2 0.2 5.7-4 12.2-9.1 6.4-5.2 16.8-12.8 23-17 6.2-4.2 15.3-9.6 20.2-12.1 5-2.5 11.4-5.4 14.3-6.5 2.9-1.2 9.3-3.2 14.2-4.5 5-1.4 12.8-3.2 17.5-4 4.7-0.9 13.5-1.9 30.5-2.9l11 10.1-18.5 0.6c-10.2 0.3-22.8 1.3-28 2.2-5.2 0.9-13.5 2.7-18.5 4.1-4.9 1.4-12.2 3.9-16.2 5.5-4 1.6-10.8 4.6-15 6.8-4.3 2.1-10.3 5.4-13.3 7.2-3 1.9-7.7 4.9-10.5 6.8-2.7 1.9-9.4 7-14.7 11.3-7.8 6.2-10.3 7.7-15.3 7.1l-0.1-22.4c0-20 0.2-23 1.9-27.9 1.1-3 3.6-8 5.6-11 2-2.9 6.6-8.3 10.2-12 3.6-3.6 9.9-8.8 14-11.5 4.1-2.8 10.8-6.7 14.9-8.8 4.1-2.1 11-5.1 15.3-6.7 4.2-1.7 11.9-4.1 17-5.5 5.1-1.3 10.8-2.4 12.7-2.5zm-240.5 46.8l10.5 0.6c5.8 0.3 14.6 1.2 19.5 2.1 5 0.9 13.5 2.9 19 4.6 5.5 1.7 14.1 4.9 19 7 5 2.2 13.5 6.6 19 9.9 5.5 3.2 14.1 8.8 19 12.4 5 3.6 13.6 10.7 19.2 15.8 5.6 5.1 9.8 9.4 9.3 9.5-0.6 0.2-1.8-0.3-2.8-1-1.1-0.7-6.6-5-12.3-9.6-5.7-4.7-14.2-10.9-18.9-14-4.7-3-12.8-7.5-18-9.9-5.2-2.5-14-6-19.5-7.8-5.5-1.8-14.5-4.2-20-5.3-5.5-1.1-14.9-2.5-21-3.1-6-0.6-15.6-1-21.2-1-5.9 0-10.5-0.5-10.8-1-0.3-0.6 1.9-2.9 4.8-5.1zm8.9 19.5c15.1 0.4 23.8 1.1 30.6 2.5 5.2 1.1 14.9 3.6 21.5 5.6 6.6 2 14.6 4.9 17.8 6.4 3.1 1.4 5.7 3 5.7 3.4 0 0.4-4.9 0.5-10.8 0.1-5.9-0.3-10.5-0.4-10.2 0 0.2 0.3 4.7 1.7 10 3 5.2 1.4 13.5 3.9 18.5 5.7 4.9 1.7 13.9 5.6 20 8.6 6 3 11.6 6.1 12.5 6.9 0.8 0.8 1.2 1.6 1 1.9-0.3 0.2-15.8-4.5-34.5-10.6-18.7-6-42.8-13.6-53.5-16.8-10.8-3.2-26.2-7.8-34.3-10.2-9-2.7-14.9-4.9-15-5.7-0.3-1.2 3-1.3 20.7-0.8zm275.8-0.2c9.8-0.1 17.8 0.2 17.8 0.6 0 0.4-2.4 1.6-5.3 2.6-2.9 0.9-19.2 6-36.2 11.1-17.1 5.2-46.7 14.4-65.8 20.5-19.1 6.1-35.3 11-36 11-0.7 0 1.7-1.9 5.3-4.2 3.5-2.3 10.7-6 16-8.4 5.2-2.3 16.7-6.3 25.5-8.9 8.8-2.6 16.9-5.1 18-5.6 1.2-0.6-2.7-0.7-10.3-0.4-6.7 0.3-12.2 0.3-12.2 0 0-0.2 1.7-1.2 3.7-2 2.1-0.9 8-3.2 13.3-5.1 5.2-1.9 15.1-4.9 22-6.5 6.8-1.6 15.6-3.3 19.5-3.8 3.8-0.4 15-0.9 24.7-0.9zm-318.8 14.1c0.6 0.3 8.9 3 18.6 6 9.6 3.1 24.2 7.6 32.5 10.2 8.2 2.6 19.7 6.2 25.5 8 5.7 1.9 20.8 6.6 33.5 10.5 12.6 3.9 23.5 7 24.2 7 0.8 0 2.2 4.3 3.8 11.3 1.4 6.2 2.4 11.7 2.3 12.2-0.2 0.6-1.9 0.9-3.8 0.7-2-0.1-10.3-1.8-18.5-3.8-8.3-1.9-19.1-4.8-24-6.5-5-1.7-13.5-4.9-19-7.1-5.5-2.1-15-6.4-21-9.4-6.1-3.1-14-7.3-17.5-9.4-3.6-2.1-11.5-7.2-17.5-11.5-6.1-4.2-13.4-9.7-16.3-12.1-2.9-2.4-4.9-4.8-4.6-5.4 0.4-0.6 1.2-0.9 1.8-0.7zm354.8 0.9c0.4-0.1 1 0.3 1.3 0.8 0.2 0.6-2.8 3.7-6.8 6.9-4 3.2-9.7 7.6-12.7 9.8-3.1 2.2-10.5 7.1-16.5 10.8-6.1 3.8-17.1 9.9-24.5 13.5-7.5 3.6-19.2 8.5-26 10.8-6.9 2.3-17.9 5.5-24.5 7.1-6.6 1.7-16.1 3.7-21 4.5-5 0.9-9.2 1.5-9.3 1.4-0.2-0.2 0.6-5.2 1.8-11.3 1.2-6 2.7-11.5 3.4-12.1 0.6-0.6 6.2-2.6 12.6-4.3 6.3-1.8 23.6-7 38.5-11.7 14.8-4.6 39.6-12.4 55-17.2 15.4-4.9 28.3-9 28.7-9zm-210.4 43.2c0.9 0.3 3.4 0.9 5.6 1.3 2.9 0.7 4.5 1.8 6.5 4.7 1.5 2.4 4.6 4.9 7.6 6.5 2.7 1.4 6.9 2.8 13.5 3.6v60.3c0 33.1-0.4 60.3-0.8 60.3-0.4 0-3.4-10.5-6.6-23.3-3.3-12.8-8.1-31.4-10.8-41.3-2.8-9.9-6.1-22.7-7.4-28.5-1.4-5.7-4-17.7-5.9-26.5-2-8.8-3.5-16.3-3.4-16.8 0-0.4 0.8-0.6 1.7-0.3z"/><path class="a" d="m480 326c-4.1 0.4-10.5 1.2-14.3 1.9-5.3 0.9-6.7 1.5-6.7 2.9 0 0.9 2.1 10.2 4.7 20.6l4.8 18.8c7.8-0.9 16-1.5 23.3-2l13.2-0.7v-42.5c-13.6 0.2-20.9 0.6-25 1zm-37.5 7.9c-4.9 1.5-11.9 3.9-15.5 5.3-3.6 1.4-8.5 3.5-11 4.8-2.5 1.2-4.6 2.4-4.7 2.6-0.2 0.2 4.5 8.4 10.4 18.1 5.8 9.8 10.7 17.9 10.7 18 0.1 0.2 3.2-1 7.1-2.5 3.9-1.6 10.7-4.1 15.3-5.5 6.1-2 8.2-3.1 8.2-4.5 0-0.9-1.7-8.2-3.9-16.2-2.1-8-4.4-16.4-5-18.8-0.6-2.3-1.4-4.2-1.8-4.1-0.5 0-4.9 1.3-9.8 2.8zm137.5 8.5c-3.5 1.6-6.2 3.5-7.6 5.7-1.2 1.9-2.7 4.5-3.4 5.9-0.8 1.4-1.4 5.2-1.4 8.5 0 4.2 0.6 7.2 2.1 10 1.2 2.2 3.2 5 4.5 6.1 1.2 1.2 3.8 2.9 5.6 3.8 1.7 0.9 5.1 1.9 7.5 2.2 2.3 0.4 6 0.1 8.2-0.5 2.2-0.6 5.6-2.4 7.5-3.9 1.9-1.6 4.7-5.3 6.3-8.3 1.5-3 2.7-7 2.7-8.9 0-1.9-0.5-5.3-1.1-7.5-0.7-2.5-2.9-5.8-5.8-8.6-2.8-2.9-6.1-5.1-8.6-5.8-2.2-0.6-5.6-1.1-7.5-1.1-1.9 0-6 1.1-9 2.4zm-181.8 11.3c-3.4 2.1-8.8 5.7-11.9 8-3.2 2.4-7.7 6-10.1 8l-4.4 3.8c19.1 20.9 25.6 28 26.7 29.3l2 2.4c5.4-4.9 11.6-9.5 17.3-13.3l10.2-6.9c-11.3-19-16.1-26.9-18-29.7-1.9-2.9-4-5.3-4.5-5.3-0.6 0-3.8 1.7-7.3 3.7zm-36.8 30.5c-3.3 3.5-7.9 8.5-10.1 11.3-2.2 2.7-5.7 7.7-7.8 11l-3.8 6c4.4 3.1 12 8 19.7 12.8l14.1 8.8c3.7-4.3 8.7-10.2 13.6-15.9l8.9-10.2c-21.3-23.3-27.7-30.1-28-30-0.3 0-3.3 2.8-6.6 6.2zm-25.1 35c-0.5 0.7-2.6 4.2-4.6 7.8-2 3.6-5.2 10.8-7.2 16-2 5.2-3.4 9.6-3.3 9.6 0.2 0.1 8.6 2.9 18.8 6.3 10.2 3.4 18.8 6.1 19.3 6.1 0.4 0 0.7-0.6 0.7-1.3 0-0.6 2.5-6.4 5.5-12.7 3.1-6.3 5.5-11.8 5.5-12.3 0-0.4-2.8-2.4-6.2-4.4-3.5-2-10.6-6.3-15.8-9.6-5.2-3.3-10-6.2-10.6-6.4-0.6-0.2-1.5 0.2-2.1 0.9zm-17.4 40.2c-0.4 1.1-1.6 6.4-2.7 11.6-1.2 5.2-2.6 14.4-3.2 20.5-0.5 6.1-1 12.2-1 13.7v2.8h39.5c1.1-12.8 2.4-20.8 3.5-26 1.2-5.2 2.3-10.1 2.4-10.9 0.1-0.9-6-3.4-18.8-7.6-18.6-6.2-19-6.2-19.7-4.1zm221.1 37.7c-2.5 0.5-5.9 1.8-7.5 2.8-1.6 1.1-4.1 3.1-5.5 4.5-1.4 1.4-2.3 2.8-2 3.1 0.3 0.3 2.8 0 5.5-0.6 2.8-0.7 6.7-0.9 8.8-0.5 2.4 0.4 4.6 1.6 6.2 3.6 1.4 1.6 2.5 3.5 2.5 4 0 0.5-0.7 1.7-1.6 2.5-1 1-3.5 1.5-7 1.5-3 0-6.9 0.6-8.6 1.4-1.8 0.7-4.4 2.5-5.8 4-1.4 1.4-2.2 2.8-1.7 3.1 0.4 0.3 1.6 0 2.7-0.5 1.1-0.5 3.8-1 6-1 3.1 0 4.7 0.7 7 3 1.6 1.6 3 3.9 3 5 0 1.1 0.6 2 1.3 2 0.6 0 4.3-1.6 8.2-3.4 4.4-2.1 8.2-4.8 10.2-7.2 1.7-2.2 3.6-5.1 4.2-6.7 0.6-1.5 1.1-4.4 1.1-6.5 0-2-0.9-5.2-2-7-1.1-1.7-3.8-4.1-6-5.2-2.2-1.1-6.4-2.2-9.2-2.4-2.9-0.3-7.3-0.1-9.8 0.5zm-228 20.9c0 2.7 0.7 10.3 1.5 16.7 0.9 6.5 2.6 15.6 3.8 20.3 2.1 7.9 2.4 8.5 4.7 8.2 1.4-0.1 9.9-2.6 19-5.5 12.1-4 16.4-5.7 16.1-6.8-0.2-0.8-1.2-5.2-2.2-9.9-1-4.7-2.2-12.9-2.6-18.3l-0.8-9.7h-39.5zm26.5 45.6c-9.4 3.1-17.1 5.8-17.2 6-0.2 0.2 1.6 4.6 3.9 9.6 2.3 5.1 6.6 13.3 9.6 18.3 2.9 5 5.9 9.9 6.7 11 1.3 1.9 1.9 1.6 14.7-7.8 7.3-5.3 14.2-10.4 15.3-11.2 2-1.4 1.9-1.7-4.1-13.2-3.3-6.5-6.6-13.3-7.2-15.1-0.8-2-1.9-3.2-2.9-3.2-1 0.1-9.4 2.6-18.8 5.6z"/></svg>